<svg xmlns="http://www.w3.org/2000/svg" viewBox="0 0 1410.3 410.2" xmlns:v="https://vecta.io/nano" fill="#fff"><path d="M631.7 295.9c-26.9 0-49.2-9-67.2-26.9-17.9-17.9-26.9-40.1-26.9-66.4 0-26.4 9-48.5 26.9-66.4s40.3-26.9 67.2-26.9c17.4 0 33.3 4.1 47.5 12.2 14.3 8.1 25.3 19.3 33 33.4l-50.2 29c-6.4-11.5-16.6-17.3-30.7-17.3-9.9 0-18.1 3.4-24.7 10.1s-9.9 15.4-9.9 26 3.3 19.3 9.9 26 14.8 10.1 24.7 10.1c14.4 0 24.6-5.9 30.7-17.7l50.2 29c-7.8 14.1-18.8 25.3-33 33.6-14.2 8.1-30 12.2-47.5 12.2h0zm213.2-87.6v-94h58.7V291h-58.7v-17.7c-10.6 15.1-27 22.6-49.1 22.6-19.6 0-35.3-6.7-47.2-20s-17.8-32-17.8-56V114.3h58.7v98.3c0 9 2.4 15.8 7.1 20.7 4.7 4.8 11.2 7.2 19.4 7.2 9.2 0 16.3-2.8 21.4-8.3 4.9-5.6 7.5-13.6 7.5-23.9h0zm360 82.7h-58.7V114.3h58.7V291zm202.9-66.8h-121.9c5.9 14.4 19.1 21.6 39.6 21.6 12.5 0 23.2-4.1 32.2-12.4l42.4 29.7c-17.2 21.9-42.5 32.9-76 32.9-29.9 0-54-8.7-72.1-26.2-17.9-17.7-26.9-39.9-26.9-66.8 0-26.6 8.8-48.9 26.5-66.8s40.2-26.9 67.5-26.9c26.4 0 48.2 8.8 65.4 26.5 17.2 17.4 25.8 39.6 25.8 66.4 0 8.3-.9 15.6-2.5 22h0zm-122.7-40.7h67.9c-4.5-16.5-15.6-24.7-33.2-24.7-18.2 0-29.7 8.2-34.7 24.7h0zM1146.2 36.7h58.7v58.7h-58.7V36.7zm-48.9 91.5c-19.2-19.3-42.2-30.4-69.3-30.4h-33.6l-.1 50.6h33.6c13.5 0 25.1 4.8 34.7 14.5 9.7 9.6 14.5 21.2 14.5 34.7 0 13.6-4.8 25.2-14.5 34.8-9.6 9.6-21.2 14.4-34.7 14.4-13.6 0-25.2-4.8-34.8-14.4s-14.4-21.2-14.4-34.8V1h-49.2v196.6c0 27.1 9.6 50.3 28.8 69.5s42.4 28.8 69.5 28.8 50.2-9.6 69.4-28.8c19.3-19.2 28.9-42.4 28.9-69.5.1-27-9.5-50.2-28.8-69.4h0zM986.6 353.5l-6.4 8.4c2.4.7 4.3 1.9 5.7 3.6s2.1 3.8 2.1 6.2c0 3.5-1.2 6.3-3.6 8.3-2.3 2-5.2 3-8.7 3-2.7 0-5.1-.6-7.2-1.9s-3.6-3.1-4.6-5.4l5.8-3.3c.8 2.7 2.8 4 6 4 1.7 0 3.1-.4 4.1-1.3 1-.8 1.4-2 1.4-3.4s-.5-2.5-1.4-3.4c-1-.9-2.3-1.3-4.1-1.3h-1.5l-2.6-3.9 6.8-8.8h-13.5V348h21.6l.1 5.5h0zm55.3-5.6h13.7c4.7 0 8.6 1.7 11.8 5s4.8 7.4 4.8 12.2c0 4.9-1.6 9-4.8 12.2-3.1 3.3-7.1 5-11.8 5h-13.7v-34.4h0zm6.8 27.9h6.9c3 0 5.4-1 7.3-2.9 1.9-2 2.8-4.6 2.8-7.8s-.9-5.7-2.8-7.7-4.3-3-7.3-3h-6.9v21.4zm158.7-7v-21h6.8v34.4h-5.2l-14.7-21v21h-6.8v-34.4h5.2l14.7 21zm82.8-20.9v6.5h-13.8v8.2h13.4v6.5h-13.4v13.3h-6.8V348h20.6v-.1zm51.6 0h25.3v6.5h-9.3v27.9h-6.8v-27.9h-9.2v-6.5zm-915-186.5c-1.9-102.3-29.5-124.4-59-140.1S244.2-.8 200.9.1 124.8 7.9 71.3 37.4 9.1 93.2 3.5 120.8c-5.5 27.7-3.7 90.4 0 154s23.1 97.7 55.3 117.1c32.3 19.4 136.8 16.6 136.8 16.6 101.6 5.8 126.9-2.8 177.6-39.6s55.4-105.1 53.6-207.5h0zm-114.2-38.9c-10.2 6.5-10.1 9.1-10.1 9.1s23.8 100.3 11.9 193.4c0 0 3.3-185.6-40.6-194.1h0c-30.6-1-98-6.3-193.4-31.5 0 0 133.9 19.6 202.4 12.3 0 0 63.1-10.1 93-45.1 1.5-1.8 2.4-2.9 2.7-3.4 0-.1.1-.1.1-.2 0 0 0 .1-.1.2-.9 1.1-1.8 2.3-2.7 3.4-8.5 10.2-34.5 40-63.2 55.9h0z"/></svg>